<?xml version="1.0" standalone="no"?>
<!DOCTYPE svg PUBLIC "-//W3C//DTD SVG 20010904//EN"
 "http://www.w3.org/TR/2001/REC-SVG-20010904/DTD/svg10.dtd">
<svg version="1.0" xmlns="http://www.w3.org/2000/svg"
 width="172.000000pt" height="186.000000pt" viewBox="0 0 172.000000 186.000000"
 preserveAspectRatio="xMidYMid meet">

<g transform="translate(0.000000,186.000000) scale(0.100000,-0.100000)"
fill="#000000" stroke="none">
<path d="M1095 1758 c-11 -6 -34 -27 -51 -47 -26 -29 -33 -48 -44 -120 -24
-167 -29 -190 -83 -327 -30 -77 -80 -206 -112 -289 -32 -82 -91 -234 -131
-337 -41 -104 -74 -192 -74 -197 0 -5 -7 -14 -15 -21 -8 -7 -15 -22 -15 -34 0
-11 -9 -40 -20 -64 -16 -35 -24 -42 -48 -42 -16 0 -41 -9 -55 -20 -18 -14 -40
-20 -79 -20 -59 0 -98 -20 -98 -49 0 -22 20 -26 247 -43 132 -9 169 -9 202 2
46 15 133 7 165 -16 23 -15 126 -20 141 -5 6 5 54 11 107 13 80 4 99 2 113
-11 15 -15 18 -14 41 12 22 25 24 37 24 118 0 86 -1 90 -25 99 -24 9 -25 13
-25 100 0 98 -14 147 -55 190 -13 14 -39 41 -58 61 -19 19 -50 40 -68 45 -32
9 -34 13 -40 64 -7 69 -3 77 26 45 29 -30 79 -33 131 -9 75 36 98 161 39 211
-14 13 -35 23 -45 23 -17 0 -18 3 -6 33 26 61 48 200 49 311 3 179 -27 244
-108 234 -40 -5 -43 4 -15 50 31 50 26 63 -15 40z m71 -225 c8 -54 -9 -223
-32 -308 -29 -112 -64 -184 -114 -234 -51 -51 -70 -104 -70 -196 0 -32 -4 -45
-14 -45 -20 0 -140 -120 -161 -160 -9 -17 -21 -75 -26 -127 -6 -53 -17 -109
-25 -124 -7 -15 -14 -48 -14 -74 0 -44 -15 -60 -27 -29 -4 11 -14 14 -34 10
-51 -10 -47 8 98 394 36 96 74 193 84 215 10 22 34 85 53 140 48 137 139 372
160 415 10 19 29 44 42 55 14 12 25 34 27 52 4 32 22 63 38 63 4 0 11 -21 15
-47z m32 -547 c9 -44 -48 -101 -74 -74 -16 16 -4 76 18 90 21 13 53 4 56 -16z"/>
</g>
</svg>
