<?xml version="1.0" standalone="no"?>
<!DOCTYPE svg PUBLIC "-//W3C//DTD SVG 20010904//EN"
 "http://www.w3.org/TR/2001/REC-SVG-20010904/DTD/svg10.dtd">
<svg version="1.0" xmlns="http://www.w3.org/2000/svg"
 width="227.000000pt" height="212.000000pt" viewBox="0 0 227.000000 212.000000"
 preserveAspectRatio="xMidYMid meet">

<g transform="translate(0.000000,212.000000) scale(0.100000,-0.100000)"
fill="#000000" stroke="none">
<path d="M457 1968 c-35 -27 -207 -315 -207 -347 0 -25 36 -51 72 -51 32 0 31
8 2 -113 -17 -72 -18 -99 -2 -115 26 -26 48 -10 123 91 195 262 188 249 158
279 -12 12 -39 22 -65 25 l-44 5 8 52 c22 146 22 145 3 166 -21 23 -26 24 -48
8z m-39 -258 c1 -42 8 -50 48 -50 19 0 34 -5 34 -11 0 -11 -60 -99 -68 -99 -2
0 -1 15 2 34 9 49 -1 66 -39 66 -19 0 -36 4 -39 8 -6 10 46 92 55 87 3 -3 6
-18 7 -35z"/>
<path d="M1049 1924 c-17 -5 -39 -44 -39 -68 0 -8 -12 -17 -27 -21 -44 -10
-116 -61 -171 -118 -56 -60 -75 -94 -104 -181 -11 -34 -25 -64 -31 -68 -5 -3
-12 -31 -15 -62 -6 -70 14 -106 58 -106 42 0 45 -14 8 -45 -45 -37 -57 -62
-58 -114 0 -40 5 -49 45 -87 35 -32 45 -48 45 -73 0 -69 48 -131 143 -185 80
-46 61 -93 -58 -141 -195 -79 -245 -114 -265 -185 -5 -19 -10 -99 -10 -177 l0
-143 -113 0 c-101 0 -116 -2 -132 -20 -17 -19 -17 -21 0 -40 18 -20 31 -20
822 -20 l803 0 12 26 c20 44 -7 54 -139 54 l-113 0 0 155 c0 133 -3 161 -19
193 -31 61 -36 64 -266 164 -79 34 -80 35 -83 75 -3 38 -1 40 48 67 91 50 140
121 140 205 0 12 11 26 28 35 29 15 51 48 54 81 4 58 -3 79 -43 117 -42 40
-44 58 -5 58 38 0 56 30 56 92 0 40 -5 61 -20 78 -10 12 -26 47 -35 78 -33
113 -133 227 -239 273 -42 18 -56 29 -56 45 0 47 -22 59 -117 61 -48 1 -95 -1
-104 -3z m143 -101 c3 -28 34 -50 102 -73 22 -7 64 -37 101 -74 64 -63 97
-127 111 -217 4 -22 13 -43 20 -46 8 -3 14 -11 14 -19 0 -12 -65 -14 -400 -14
-333 0 -400 2 -400 14 0 7 7 19 15 26 8 7 15 23 15 36 0 34 39 134 66 171 45
60 99 103 164 130 82 34 90 40 90 69 0 22 4 24 49 24 46 0 50 -2 53 -27z m264
-543 c1 -8 2 -28 2 -43 2 -22 10 -31 36 -42 59 -25 54 -83 -9 -99 -20 -5 -24
-14 -30 -64 -11 -99 -25 -115 -170 -198 -72 -41 -137 -74 -144 -74 -16 0 -204
104 -250 139 -39 30 -61 75 -61 126 0 45 -15 75 -38 75 -26 0 -42 20 -42 53 0
22 6 30 30 39 34 11 50 34 50 71 0 13 3 27 7 30 4 4 144 6 312 5 264 -3 306
-5 307 -18z m-386 -575 c32 -18 108 -18 140 0 42 24 58 18 29 -11 -45 -45
-145 -49 -189 -9 -36 33 -24 45 20 20z m-10 -121 c0 -12 -21 -44 -29 -44 -9 0
-31 53 -31 72 0 5 14 2 30 -7 17 -9 30 -18 30 -21z m220 6 c-14 -48 -20 -53
-41 -34 -25 22 -24 26 9 46 38 24 42 22 32 -12z m-298 -157 c17 -34 42 -28 82
20 l36 42 0 -172 0 -173 -225 0 -225 0 0 145 c0 106 4 153 14 173 14 27 89 68
202 112 l49 18 27 -71 c15 -40 33 -82 40 -94z m494 122 c160 -66 164 -73 164
-267 l0 -138 -230 0 -230 0 0 159 c0 88 4 162 8 165 5 3 23 -11 40 -30 32 -36
58 -41 73 -14 5 8 21 48 36 88 15 40 33 72 41 72 7 0 51 -16 98 -35z"/>
<path d="M1115 1668 c-54 -62 -62 -84 -41 -107 14 -15 15 -23 5 -44 -30 -65
30 -78 84 -18 20 22 43 52 53 66 17 27 17 28 -3 44 -15 13 -19 25 -15 50 5 33
-8 50 -35 51 -6 0 -28 -19 -48 -42z"/>
<path d="M975 1176 c-21 -15 -17 -55 8 -70 25 -16 52 4 52 39 0 33 -33 51 -60
31z"/>
<path d="M1256 1171 c-21 -23 -14 -57 14 -66 23 -7 36 -1 50 25 8 15 6 24 -10
40 -25 25 -32 25 -54 1z"/>
<path d="M1105 1000 c-24 -4 -31 -11 -33 -32 -5 -41 14 -66 53 -74 25 -4 43
-1 60 10 29 19 42 60 26 80 -14 16 -63 24 -106 16z"/>
<path d="M683 294 c-13 -36 10 -49 93 -52 107 -4 126 2 122 36 l-3 27 -103 3
c-88 2 -103 0 -109 -14z"/>
<path d="M953 294 c-8 -21 9 -48 31 -52 37 -8 64 49 30 62 -28 11 -54 6 -61
-10z"/>
<path d="M1267 304 c-15 -15 -7 -53 13 -59 27 -8 52 12 48 39 -3 21 -46 35
-61 20z"/>
<path d="M1393 303 c-16 -6 -17 -35 -1 -51 8 -8 46 -12 105 -12 90 0 93 1 99
24 3 14 3 30 -1 35 -6 11 -178 14 -202 4z"/>
<path d="M1827 1798 c-9 -7 -27 -52 -39 -100 l-23 -87 43 -44 42 -43 0 -126 0
-127 -32 -3 c-50 -5 -58 -31 -57 -193 1 -207 8 -252 47 -286 26 -23 42 -29 78
-29 54 0 76 10 104 50 20 29 21 41 20 232 0 129 -5 206 -12 215 -6 7 -23 13
-39 13 l-29 0 0 128 0 128 31 30 c45 43 51 58 39 104 -5 22 -15 58 -20 80 -6
21 -17 46 -26 55 -19 18 -103 20 -127 3z m87 -113 c14 -44 14 -47 -6 -67 l-20
-20 -21 20 c-17 17 -18 25 -9 49 5 15 13 36 16 46 9 29 23 19 40 -28z m24
-545 c2 -25 1 -100 -3 -168 -7 -117 -8 -124 -31 -134 -19 -9 -28 -8 -44 7 -18
17 -20 31 -20 182 l0 164 48 -3 47 -3 3 -45z"/>
<path d="M404 1147 c-3 -8 -4 -34 -2 -58 3 -41 5 -44 33 -44 36 0 55 38 39 83
-11 31 -60 44 -70 19z"/>
<path d="M210 1075 c-19 -22 -4 -60 32 -83 64 -41 94 16 37 69 -35 33 -51 36
-69 14z"/>
<path d="M597 1062 c-47 -49 -27 -99 28 -74 37 17 59 56 45 81 -15 29 -41 26
-73 -7z"/>
<path d="M365 998 c-56 -21 -114 -68 -142 -115 -23 -39 -27 -59 -27 -117 -1
-80 15 -120 70 -184 23 -28 34 -50 34 -72 0 -99 121 -163 207 -110 41 25 59
54 68 110 5 28 19 58 38 79 60 70 82 163 58 249 -14 46 -65 108 -115 137 -50
29 -145 41 -191 23z m128 -82 c51 -19 76 -42 98 -93 18 -41 19 -67 4 -113 -12
-40 -54 -90 -76 -90 -10 0 -19 2 -19 5 0 3 16 51 35 105 19 55 32 107 29 115
-9 23 -61 19 -69 -6 -6 -19 -8 -19 -32 -4 -22 15 -29 15 -50 4 -22 -12 -26
-11 -34 4 -6 9 -21 17 -34 17 -44 0 -45 -27 -5 -137 32 -86 35 -103 21 -103
-23 0 -35 10 -65 54 -60 89 -13 214 93 246 38 12 61 11 104 -4z m-48 -197 c-7
-20 -8 -21 -17 -5 -5 9 -7 24 -4 33 10 26 29 -1 21 -28z m47 -209 c-2 -26 -35
-60 -56 -60 -22 0 -56 40 -56 66 0 24 2 25 58 22 54 -3 57 -4 54 -28z"/>
<path d="M200 130 c-15 -28 4 -62 33 -58 39 5 31 78 -9 78 -7 0 -18 -9 -24
-20z"/>
<path d="M2030 135 c-26 -31 13 -82 44 -56 19 16 21 42 4 59 -16 16 -33 15
-48 -3z"/>
</g>
</svg>
