<?xml version="1.0" standalone="no"?>
<!DOCTYPE svg PUBLIC "-//W3C//DTD SVG 20010904//EN"
 "http://www.w3.org/TR/2001/REC-SVG-20010904/DTD/svg10.dtd">
<svg version="1.0" xmlns="http://www.w3.org/2000/svg"
 width="168.000000pt" height="167.000000pt" viewBox="0 0 168.000000 167.000000"
 preserveAspectRatio="xMidYMid meet">

<g transform="translate(0.000000,167.000000) scale(0.100000,-0.100000)"
fill="#000000" stroke="none">
<path d="M774 1528 c-12 -5 -26 -20 -32 -33 -6 -13 -39 -42 -74 -65 -73 -48
-122 -108 -144 -176 -9 -27 -25 -57 -36 -66 -28 -25 -40 -76 -27 -115 7 -23 7
-38 0 -52 -32 -60 8 -144 75 -157 27 -5 39 -15 54 -43 10 -20 34 -58 54 -86
25 -35 36 -61 36 -86 l0 -36 -87 -7 c-186 -15 -282 -108 -304 -293 -13 -102
-8 -163 15 -198 l16 -25 543 0 544 0 24 26 c22 24 24 33 23 118 -2 155 -48
262 -140 323 -49 32 -64 37 -154 46 l-100 10 0 41 c0 33 8 53 41 96 23 30 46
67 51 82 7 19 18 28 43 32 20 4 44 19 60 38 23 27 26 38 21 77 -8 59 -8 76 0
128 5 37 3 45 -22 68 -17 16 -33 46 -41 77 -19 71 -69 137 -134 175 -29 17
-60 38 -68 46 -7 8 -24 26 -37 41 -21 24 -29 26 -101 25 -43 0 -88 -5 -99 -11z
m174 -40 c8 -8 12 -47 12 -107 0 -95 8 -129 27 -118 6 4 13 39 17 79 3 39 8
74 10 76 8 8 63 -28 97 -65 41 -42 63 -82 74 -130 7 -33 7 -33 -34 -33 -36 0
-61 -14 -48 -27 3 -2 25 -7 49 -9 80 -9 88 -13 88 -39 0 -18 -6 -24 -27 -27
-16 -2 -182 -2 -369 0 -324 2 -342 3 -347 21 -10 40 2 42 239 44 196 2 229 4
229 17 0 13 -31 15 -207 18 -190 2 -208 4 -208 20 1 31 37 96 76 135 36 37 92
73 100 65 2 -2 7 -37 10 -76 4 -40 11 -72 15 -72 12 0 10 -10 18 113 5 78 11
111 21 117 22 14 144 12 158 -2z m107 -455 l78 -6 -5 -81 c-8 -127 -56 -205
-158 -258 -96 -49 -210 -22 -290 68 -52 60 -70 109 -70 196 0 65 3 77 18 81
27 7 341 8 427 0z m-497 -70 c2 -50 0 -63 -12 -63 -17 0 -56 46 -56 66 0 31
24 65 44 62 18 -3 21 -11 24 -65z m660 51 c39 -27 18 -114 -29 -114 -15 0 -19
7 -19 34 0 43 11 96 19 96 4 0 17 -7 29 -16z m-353 -387 c42 0 85 6 107 16 39
17 48 14 48 -15 0 -17 -11 -18 -150 -18 l-150 0 0 25 0 25 38 -16 c22 -10 65
-16 107 -17z m-92 -141 l77 -85 0 -135 0 -136 -180 0 -180 0 0 209 c0 208 0
209 23 215 47 13 47 14 47 -133 0 -162 8 -231 25 -231 10 0 14 45 17 180 4
197 4 200 63 200 25 0 43 -15 108 -84z m195 75 c-2 -4 -25 -32 -51 -61 l-48
-53 -55 54 c-46 45 -52 55 -37 61 26 10 195 10 191 -1z m265 -13 c16 -8 17
-26 15 -211 l-3 -202 -35 0 -35 0 -3 175 c-2 161 -9 206 -29 186 -5 -4 -10
-87 -13 -184 l-5 -177 -120 0 -120 0 -3 133 -3 134 82 84 82 84 86 -6 c47 -4
94 -11 104 -16z m-785 -293 l-3 -120 -48 -3 c-76 -5 -81 4 -74 129 6 117 21
158 80 225 l32 37 8 -74 c4 -41 6 -128 5 -194z m897 220 c45 -54 62 -109 71
-225 9 -112 3 -120 -78 -120 l-60 0 3 165 c3 179 7 225 19 225 5 0 25 -20 45
-45z"/>
</g>
</svg>
