<?xml version="1.0" standalone="no"?>
<!DOCTYPE svg PUBLIC "-//W3C//DTD SVG 20010904//EN"
 "http://www.w3.org/TR/2001/REC-SVG-20010904/DTD/svg10.dtd">
<svg version="1.0" xmlns="http://www.w3.org/2000/svg"
 width="206.000000pt" height="206.000000pt" viewBox="0 0 206.000000 206.000000"
 preserveAspectRatio="xMidYMid meet">

<g transform="translate(0.000000,206.000000) scale(0.100000,-0.100000)"
fill="#000000" stroke="none">
<path d="M980 1927 c-14 -7 -34 -29 -45 -49 -17 -32 -27 -39 -62 -44 -23 -3
-50 -12 -60 -19 -16 -12 -16 -15 -3 -29 12 -12 23 -13 60 -5 25 6 108 9 187 7
137 -4 142 -5 178 -32 52 -40 66 -81 63 -179 l-3 -82 -137 -9 c-77 -5 -194 -5
-270 0 l-133 9 0 100 c0 55 2 109 5 120 3 13 -1 20 -13 23 -28 6 -47 -55 -47
-153 0 -71 -3 -85 -16 -85 -27 0 -74 -56 -74 -87 0 -31 24 -65 56 -81 18 -10
22 -23 26 -96 8 -123 57 -216 146 -274 25 -16 30 -59 10 -84 -7 -8 -50 -28
-96 -43 -88 -31 -113 -48 -94 -67 11 -11 49 -4 107 18 7 3 44 -24 83 -60 38
-36 78 -66 88 -66 10 0 33 14 51 32 l33 32 33 -32 c49 -48 71 -43 148 34 l66
65 111 -36 c137 -44 162 -62 162 -116 0 -28 -4 -39 -15 -39 -8 0 -24 -9 -35
-20 -18 -18 -20 -33 -20 -139 0 -150 1 -151 138 -151 94 0 94 0 128 34 33 33
34 36 34 120 l0 86 -40 37 -40 38 0 112 0 112 41 38 c23 21 48 54 56 73 8 19
24 45 36 57 28 31 27 81 -2 105 -21 16 -43 18 -195 18 -200 0 -219 -6 -224
-64 -2 -27 2 -44 16 -60 11 -11 27 -38 37 -58 9 -21 32 -51 51 -68 30 -26 34
-35 34 -79 l0 -49 -37 18 c-21 9 -94 36 -163 60 -69 23 -131 47 -137 52 -7 6
-13 25 -13 42 0 25 10 39 49 74 73 62 112 146 118 256 5 69 9 87 23 91 56 18
71 103 25 142 -14 13 -32 23 -39 23 -10 0 -15 26 -18 94 -4 67 -11 105 -25
133 -27 52 -91 99 -147 107 -40 6 -48 12 -63 43 -10 22 -29 41 -49 49 -41 17
-52 17 -84 1z m83 -59 l22 -23 -54 -3 c-64 -4 -74 3 -42 29 30 25 46 24 74 -3z
m-373 -458 c0 -31 -16 -41 -26 -15 -8 19 2 45 16 45 5 0 10 -13 10 -30z m569
10 c-5 -8 -17 -26 -28 -40 l-20 -25 -186 0 -186 0 -29 35 c-16 19 -30 37 -30
40 0 3 110 5 244 5 214 0 243 -2 235 -15z m128 4 c3 -8 -2 -23 -11 -32 -15
-15 -16 -14 -16 16 0 33 16 43 27 16z m-577 -104 c11 -6 101 -10 218 -10 219
0 214 -1 265 70 17 24 18 23 13 -90 -5 -138 -21 -189 -78 -247 -116 -118 -321
-115 -418 7 -58 73 -70 113 -70 240 l0 115 25 -37 c14 -21 34 -42 45 -48z
m985 -270 c0 -13 -27 -15 -169 -18 -163 -2 -197 3 -181 27 4 8 60 11 178 9
145 -3 172 -5 172 -18z m-55 -93 c0 -23 -61 -76 -94 -83 -39 -7 -99 16 -126
48 -37 44 -29 48 100 48 92 0 120 -3 120 -13z m-725 -52 c22 0 60 4 85 8 l45
8 -62 -63 -63 -63 -55 55 c-30 30 -55 58 -55 62 0 4 15 4 33 0 17 -4 50 -7 72
-7z m-58 -172 l-27 -27 -45 44 c-45 44 -57 70 -31 70 7 0 19 7 27 16 11 13 18
10 58 -30 l46 -46 -28 -27z m226 94 l27 -23 -50 -49 -50 -49 -27 27 -27 27 44
45 c24 25 47 45 50 45 3 -1 17 -11 33 -23z m457 -112 c0 -108 -1 -115 -20
-115 -19 0 -20 7 -20 115 0 108 1 115 20 115 19 0 20 -7 20 -115z m67 -188 c8
-8 14 -39 14 -80 2 -97 -10 -107 -118 -107 l-83 0 0 99 c0 86 2 100 18 105 31
9 155 -3 169 -17z"/>
<path d="M867 1273 c-11 -10 -8 -81 3 -88 16 -10 35 11 38 41 3 37 -22 66 -41
47z"/>
<path d="M1144 1266 c-11 -28 1 -81 18 -84 21 -4 33 35 24 73 -7 27 -33 34
-42 11z"/>
<path d="M962 1056 c4 -32 68 -45 103 -22 40 26 26 40 -44 42 -58 1 -62 0 -59
-20z"/>
<path d="M959 1701 c-38 -39 -39 -87 -3 -130 35 -42 98 -44 135 -5 36 38 34
107 -4 140 -40 34 -90 32 -128 -5z m99 -33 c16 -16 15 -53 -2 -68 -21 -16 -56
-9 -72 15 -27 41 39 88 74 53z"/>
<path d="M535 758 c-35 -19 -76 -62 -96 -100 -16 -32 -19 -59 -19 -198 0 -138
2 -161 16 -167 28 -11 34 18 34 173 0 141 2 153 23 185 12 19 39 45 60 58 58
38 42 83 -18 49z"/>
<path d="M1011 620 c-14 -8 -8 -40 7 -40 5 0 15 6 21 14 15 17 -8 39 -28 26z"/>
<path d="M665 467 c-3 -7 -5 -49 -3 -93 3 -71 5 -79 23 -79 19 0 20 7 20 90 0
78 -2 90 -18 93 -9 2 -19 -3 -22 -11z"/>
<path d="M1003 464 c-8 -22 18 -37 36 -20 7 8 10 19 7 25 -10 16 -36 13 -43
-5z"/>
<path d="M1011 331 c-17 -11 -7 -41 13 -41 22 0 30 20 15 36 -9 8 -19 10 -28
5z"/>
</g>
</svg>
